<svg
                    version="1.1"
                    id="svg2"
                    inkscape:version="0.91 r13725"
                    sodipodi:docname="Premier League 2016 Symbol.svg"
                    xmlns:cc="http://creativecommons.org/ns#"
                    xmlns:dc="http://purl.org/dc/elements/1.1/"
                    xmlns:inkscape="http://www.inkscape.org/namespaces/inkscape"
                    xmlns:rdf="http://www.w3.org/1999/02/22-rdf-syntax-ns#"
                    xmlns:sodipodi="http://sodipodi.sourceforge.net/DTD/sodipodi-0.dtd"
                    xmlns:svg="http://www.w3.org/2000/svg"
                    xmlns="http://www.w3.org/2000/svg"
                    xmlns:xlink="http://www.w3.org/1999/xlink"
                    x="0px"
                    y="0px"
                    viewBox="0 0 804.3 1000"
                    style="enable-background:new 0 0 804.3 1000;"
                    xml:space="preserve"
                  >
                    <sodipodi:namedview
                      bordercolor="#666666"
                      borderopacity="1"
                      fit-margin-bottom="0"
                      fit-margin-left="0"
                      fit-margin-right="0"
                      fit-margin-top="0"
                      gridtolerance="10"
                      guidetolerance="10"
                      id="namedview6"
                      inkscape:current-layer="svg2"
                      inkscape:cx="368.29688"
                      inkscape:cy="733.30075"
                      inkscape:pageopacity="0"
                      inkscape:pageshadow="2"
                      inkscape:window-height="705"
                      inkscape:window-maximized="1"
                      inkscape:window-width="1366"
                      inkscape:window-x="-8"
                      inkscape:window-y="-8"
                      inkscape:zoom="0.5"
                      objecttolerance="10"
                      pagecolor="#ffffff"
                      showgrid="false"
                    ></sodipodi:namedview>
                    <path
                      id="path56"
                      inkscape:connector-curvature="0"
                      class="st1"
                      d="M705.1,457.5c-21.9,17.9-40.4,27.9-40.4,27.9l0.3,56.8
	c15.6,17,31,31.1,42.6,56.8C729.4,560.6,725.2,504,705.1,457.5 M687.3,643.4c0,0-4.5-23.4-23.5-45.3l-43.3,1c0,0-58.4,49-94,50.1
	c0,0,19.6,35.6,29.6,54.2c19.6-4.2,54.1-19.3,68-35c0,0,9.2,28.9,7.5,63C650.9,720.5,677.8,690.6,687.3,643.4 M631.4,540.9
	l-0.1-56.6c0,0-25.9-8.1-53.5-29c-55.5,8.2-122.7,62.7-122.7,62.7s22.7,42,47.6,87.4C546.3,611.3,610.7,557.5,631.4,540.9
	 M779.5,776.5l-35.7-38.6c-10.2,104.3-62.5,192.8-158.7,254.6l-14.7-56.2c-81.6,57.5-221.7,94.8-342,28.4
	c15-74.4,28.2-149.7-0.3-240c-66.6,100.7-125.6,140.1-125.6,140.1c-45-73.8-41-221.7-27.5-265.3L0,622.2
	C0,572.5,36.7,467,89.8,407.8L43,400.4h0c31.8-63.4,79.3-118,137.3-159.1l0.1,0c-17.4,26.9-17.7,93.2,33.4,118.4
	c-21.7-37.1-24.3-83-1.6-106.7c22.7-24,60.8-15.7,85.1,2.8c-7.2-20.7-28.5-46.8-60.3-48.5h0c60.1-30.2,128.2-47.1,200.4-47.1
	c13.5,0,26.9,0.6,40.1,1.7l0,0c21,8.2,51.8,37.1,66.1,55c0,0,1-21.2-11-46.7c78.1,18.6,115.4,49.6,131,64.5
	c3.2,33,13.3,52.7,26.7,84c-25.3-27.7-88.9-72.3-119.3-83c0,0-2.5,28.6-12.9,42.3c-60.5-42.6-90.2-53.3-90.2-53.3
	c-66.4,9.3-109.1,34.3-132.3,53.9l20.2,16.8c-40,12-66,45.5-66,45.5c0.3,0.6,35.8,5.5,35.8,5.5s-3.6,40.6,48.5,66.1
	c44.7,21.8,108.9-5.3,169.4,18.4c-39.8-44.8-67.3-64.8-67.3-64.8s-15.8-3.2-26.9-3.1c-13.9,0.1-34.6,2.8-57.3-5.9
	c-10.9-4.1-23.5-11.5-33.5-17.5c0,0,27.9-28,68.7-34.1c0,0,36.8,10.1,66,31.1c19.4-18.4,39.6-17.8,39.6-17.8s-20,18.2-14,40.3
	c29.1,25.3,60.7,61.5,60.7,61.5c32.2-17.2,102.1-13.2,116.5,3c-18.2-23-44.4-42.3-64.7-58.7c-2.5-8.6-24.6-38.7-28.4-41.5
	c0,0,21.1,6.3,39.9,22.8c5.4-7.5,15.5-15.2,29.3-18.5c14.2,11.6,16.7,29.4,16.3,32.3c-6.4,7.4-12.7,10.5-12.7,10.5l34.1,36l3.4-25.8
	C791.7,490.5,834.6,617.2,779.5,776.5 M158.8,83.5c45.3,20.3,74.4,45.8,79.7,49.7c-2.4-11.4-11.3-66.4-16.5-100.5
	c26.4,17.9,87.7,59.4,107.9,72.8c8.2-24.7,36.7-105.3,36.7-105.3s51.5,81.3,60.3,94.5c10.7-11,72.2-77.7,88.2-94.6
	c2.7,38.4,6.3,93.4,7.2,101.6c3.1-4.1,26.6-36.3,66.1-65.9c-17.1,32.9-25.3,78.2-28.9,114.7c-38.8-10.6-79.8-16.2-122-16.2
	c-81.1,0-157.2,20.8-223.1,57.3C202.4,156.2,183.7,112.4,158.8,83.5"
                    />
                  </svg>