<svg
              version="1.1"
              id="svg2985"
              inkscape:version="0.91 r13725"
              sodipodi:docname="Premier League Inverted symbol 2016.svg"
              xmlns:cc="http://creativecommons.org/ns#"
              xmlns:dc="http://purl.org/dc/elements/1.1/"
              xmlns:inkscape="http://www.inkscape.org/namespaces/inkscape"
              xmlns:rdf="http://www.w3.org/1999/02/22-rdf-syntax-ns#"
              xmlns:sodipodi="http://sodipodi.sourceforge.net/DTD/sodipodi-0.dtd"
              xmlns:svg="http://www.w3.org/2000/svg"
              xmlns="http://www.w3.org/2000/svg"
              xmlns:xlink="http://www.w3.org/1999/xlink"
              x="0px"
              y="0px"
              viewBox="0 0 804.7 1000"
              style="enable-background:new 0 0 804.7 1000;"
              xml:space="preserve"
            >
              <sodipodi:namedview
                bordercolor="#666666"
                borderopacity="1"
                gridtolerance="10"
                guidetolerance="10"
                id="namedview2987"
                inkscape:current-layer="svg2985"
                inkscape:cx="222.94998"
                inkscape:cy="488.96677"
                inkscape:pageopacity="0"
                inkscape:pageshadow="2"
                inkscape:window-height="705"
                inkscape:window-maximized="1"
                inkscape:window-width="1366"
                inkscape:window-x="-8"
                inkscape:window-y="-8"
                inkscape:zoom="0.33849558"
                objecttolerance="10"
                pagecolor="#ffffff"
                showgrid="false"
              ></sodipodi:namedview>
              <path
                id="path2999"
                inkscape:connector-curvature="0"
                class="st0"
                d="M369.3,0l-15,44.6c-8.3,24.6-16.2,47.8-17.6,51.6
	c-2.4,6.6-4.9,5.4-50.3-26.2c-26.3-18.3-49.6-33.9-51.7-34.7c-2.8-1.1-3.5,1-2.3,7.4c4.7,25.3,13.5,84,12.7,84.8
	c-0.5,0.5-7.4-4-15.2-10c-15.9-12.2-52.3-34.1-53.8-32.5c-0.5,0.6,5.9,13,14.3,27.5c8.4,14.6,19.1,37.4,23.9,50.9s9,24.4,9.5,24.4
	c0.5,0,10.3-4.8,21.9-10.6c86-43.3,193.9-56.2,288.3-34.4c11,2.5,20.2,4.2,20.6,3.7c0.3-0.5,2.4-13.6,4.5-29.1s7.7-39.7,12.4-53.7
	c10.5-31.4,8.5-30.9-26.9,6.6L519.2,97l-2-27.3c-1.1-15-3-36.6-4.2-48l-2.2-20.7l-40.6,45c-22.3,24.7-41.4,45-42.3,45
	c-0.9,0-11.4-15.8-23.4-35.2S379.7,15.8,376,10.2L369.3,0z M437.2,158.5c-62.3,0.2-107.2,9.3-167.5,34c-13.8,5.7-31.2,12-38.8,14
	c-8.7,2.4-19.7,9.2-29.7,18.5c-8.8,8.1-24.4,21-34.7,28.6c-26.7,19.7-70.7,62.9-90.6,88.9c-16.8,22-39.3,57.3-39.3,61.7
	c0,1.2,6,3.2,13.3,4.3c25.7,4,25.3,3.6,16.3,18.3C29.7,486.3,7,551.2,0.7,614.4c-1.4,14.5-0.9,18,2.8,18c3.7,0,25.8-6.3,59.7-17
	c2-0.6,3.2,23.6,3.3,68.3c0.1,58.9,1.2,73.8,6.9,99.4c7.3,32.9,22.7,75.3,31.4,86.5l5.5,7.1l21.8-17.9c28.3-23.2,54-49.8,77.7-80.2
	c16.6-21.3,19.3-23.7,22.2-18.8c5.8,9.7,4.1,113.8-2.4,148c-10.5,55.5-12.4,47.9,14.6,60.9c49.8,23.9,122.2,34.9,177.6,27
	c32.4-4.6,85.4-21.9,111.8-36.4c10.8-5.9,20.2-10.8,20.8-10.8s2.7,6.7,4.8,14.9c10.2,41.4,8.9,38.9,18.5,33.9
	c4.8-2.5,21.5-14.4,37.3-26.6c59.2-45.8,101.6-109.1,120.3-179.4l7.2-27.3l14.5,14.3c8,7.9,15.2,13.1,16.1,11.7
	c0.8-1.5,4.5-11.8,8.1-23c34.3-105.4,31.2-205.4-8.6-284.2c-10.5-20.7-37.8-61.5-37.8-56.5c0,0.9,4.8,12.1,10.7,24.8
	c35.7,77.5,42.2,177.4,17.4,269.2l-3.7,13.7l-19.5-21.6L720,691l-3.6,29.4c-7.6,61.4-24,109.2-52,151.1
	c-15.4,23.1-53,63.8-69.6,75.4c-6.6,4.6-6.8,4.2-12.2-18c-3-12.5-6.3-24.3-7.4-26.4c-1.3-2.5-7.3-0.3-19.1,7.3
	c-64.4,41.1-132.1,60.7-195.4,56.5c-30.7-2.1-68.6-10.7-91.5-20.8c-12.3-5.4-14.1-7.4-12.5-13.4c7.3-27.3,11.9-82.6,10.3-124.4
	c-1.7-45.4-5.7-70.4-17.9-110.7l-6.5-21.5L221.6,708c-25.8,39.5-52.2,72.3-81.1,100.8l-21.8,21.5l-5.1-15.3
	C94,756,90.8,646.9,106.8,586.1c3.3-12.5,3.4-16.4,0.5-16.4c-2.1,0-17.1,4.2-33.4,9.3c-39.1,12.3-38.7,12.4-36.1-3.8
	c7.6-47.3,49.6-132.2,84.8-171.1c13-14.4,13.5-14-18.6-18.6c-8.4-1.2-15.9-3.8-16.5-5.7c-2-6,35.2-52.3,64-79.5l27.5-26l2.3,16.3
	c2.9,20.5,12.6,39.7,26.7,53c6,5.7,11.4,9.8,12,9.2s-1.9-8.8-5.6-18.1c-8.8-22.5-9.4-56.2-1.3-72.6c12.8-26,41.5-34,72-20.1l17.5,8
	l-4.6-8.8c-2.5-4.9-8.2-13.1-12.6-18.3l-8-9.5l25.2-9.7c55.1-21.2,120.8-30.9,174-25.6l31.1,3.1l18.4,19.8l18.4,19.8l-2.1-16.5
	l-2.1-16.5l8.7,2.1c14.7,3.6,60.8,20.2,82.3,29.7l20.3,9l-12.5-10.9c-26.7-23.2-81.6-46-133-55.1
	C493.2,160.3,462.2,158.4,437.2,158.5L437.2,158.5z M462.9,222.3c-23.5,0-82.7,22.5-109,41.3l-14.2,10.2l9.1,8.1l9.1,8.1l-15.9,8.4
	c-18.3,9.6-46.4,32.7-44.2,36.4c0.8,1.4,8.6,3.4,17.2,4.5c13.5,1.8,15.7,3.1,15.8,9c0.2,20.5,22.4,47.2,49.9,59.7
	c12.6,5.8,20.9,6.6,72.2,7.2c31.8,0.4,62.1,2,67.3,3.7c19.3,6.3,18,2.9-9.5-24.8c-15.5-15.6-30.9-29.9-34.4-31.8
	c-3.4-1.9-21.8-4.3-40.9-5.4c-29.7-1.6-37.1-3.2-52.5-11c-9.8-5-17.4-10.6-16.8-12.4c1.9-6.1,30.7-23.6,46.6-28.3
	c14.9-4.4,16.5-4.3,33.9,2.8c10.1,4.1,24.2,11,31.5,15.3c13.2,7.8,13.2,7.8,21.3,1.9c4.5-3.3,12.6-7.3,18.1-8.9l10-2.8l-6,9.9
	c-11.3,18.6-8.6,25.7,23.2,59.3l28.9,30.6l18.5-4.8c27.5-7.2,58.4-6.1,84.5,2.9c3.4,1.2-5.7-9.1-20.3-22.8
	c-34.4-32.2-33-30.7-45.3-49.8c-12.2-18.9-8.9-21,10.5-6.9c11.9,8.6,13.6,9,18,4.6c2.7-2.7,8.9-6.9,13.8-9.5
	c8.4-4.4,9.2-4.2,15.4,3.7c10.1,12.9,11.6,23.1,4.2,29.1c-6.2,5-6.1,5.4,8.7,22.2c8.2,9.4,16.1,16,17.4,14.6
	c1.3-1.3,2.5-11.9,2.5-23.5c0.1-24.9-7.2-43.5-24.8-62.9c-15.4-17-63.6-53.4-89.8-67.6l-20.9-11.4l-3.5,16.6
	c-5.7,27.4-5.7,27.4-35,8C496.5,235.6,471,222.3,462.9,222.3L462.9,222.3z M570.5,449c-3.5-0.4-7.5,0.9-15.4,3.5
	c-30.6,10-99.1,50.3-99.1,58.3c0,1.5,10.1,21.9,22.5,45.2l22.5,42.4l12.7-1.9c7-1.1,24-7.4,37.8-14.2c13.8-6.7,35.6-20.4,48.5-30.5
	l23.5-18.2l0.9-27.2l0.9-27.2l-15-7.6c-8.2-4.2-20.5-11.4-27.2-16C577,451.4,574,449.4,570.5,449L570.5,449z M693.3,453.5
	c-2.7-0.1-7.3,3-18.1,10.7l-18.5,13.2l-0.2,28.9l-0.2,28.9l14.3,16.1c7.9,8.9,16.5,20.8,19.3,26.6c2.7,5.8,6.1,9.8,7.5,8.9
	c1.4-0.9,4.7-8.8,7.3-17.6c8.4-28.4,4.1-89.8-7.8-112.1C695.8,454.8,694.9,453.6,693.3,453.5L693.3,453.5z M624.6,588.9
	c-9.7,0.3-13.5,2.8-25.4,11.7c-24.4,18.2-46.1,30.7-61.1,35.1c-7.3,2.2-13.3,4.4-13.3,5.1c0,6,26.2,51.1,29.7,51.1
	c7.2,0,39.4-15.1,51-23.9c5.8-4.4,11.1-7.5,11.7-6.9c1.1,1.1,7.8,50.3,7.8,57.1c0,5.3,25.2-21.1,33.5-35.1
	c4.4-7.4,10.7-22.2,14-32.9l6.1-19.4l-10.4-20.4l-10.4-20.4l-21-0.9C631.7,589,627.9,588.8,624.6,588.9L624.6,588.9z"
              />
            </svg>